<svg width="50" height="50" viewBox="0 0 50 50" fill="none" xmlns="http://www.w3.org/2000/svg">
<rect x="-0.5" y="0.5" width="49" height="49" rx="24.5" transform="matrix(-1 0 0 1 49 0)" stroke="#D4D4D4"/>
<path d="M12.2929 26.7071C11.9024 26.3166 11.9024 25.6834 12.2929 25.2929L18.6569 18.9289C19.0474 18.5384 19.6805 18.5384 20.0711 18.9289C20.4616 19.3195 20.4616 19.9526 20.0711 20.3431L14.4142 26L20.0711 31.6569C20.4616 32.0474 20.4616 32.6805 20.0711 33.0711C19.6805 33.4616 19.0474 33.4616 18.6569 33.0711L12.2929 26.7071ZM37 27L13 27L13 25L37 25L37 27Z" fill="black"/>
</svg>
