<svg width="42" height="43" viewBox="0 0 42 43" fill="none" xmlns="http://www.w3.org/2000/svg">
    <path fill-rule="evenodd" clip-rule="evenodd" d="M21 0.275391C15.4305 0.275391 10.089 2.50968 6.15076 6.48675C2.21249 10.4638 0 15.8579 0 21.4823C0 27.1067 2.21249 32.5008 6.15076 36.4778C10.089 40.4549 15.4305 42.6892 21 42.6892C26.5695 42.6892 31.911 40.4549 35.8492 36.4778C39.7875 32.5008 42 27.1067 42 21.4823C42 15.8579 39.7875 10.4638 35.8492 6.48675C31.911 2.50968 26.5695 0.275391 21 0.275391ZM15 12.4823C15 11.3777 15.8954 10.4823 17 10.4823H19C20.1046 10.4823 21 11.3777 21 12.4823V30.4823C21 31.5869 20.1046 32.4823 19 32.4823H17C15.8954 32.4823 15 31.5869 15 30.4823V12.4823ZM23 12.4823C23 11.3777 23.8954 10.4823 25 10.4823H27C28.1046 10.4823 29 11.3777 29 12.4823V30.4823C29 31.5869 28.1046 32.4823 27 32.4823H25C23.8954 32.4823 23 31.5869 23 30.4823V12.4823Z" fill="white"/>
</svg> 